<?xml version="1.0" standalone="no"?>
<!DOCTYPE svg PUBLIC "-//W3C//DTD SVG 1.1//EN" "http://www.w3.org/Graphics/SVG/1.1/DTD/svg11.dtd" >
<svg>
<metadata>
Created by FontForge 20110222 at Wed Dec 17 12:00:50 2014
 By deploy user
(c) Dutch Design: Albert-Jan Pool, 1995. Published by FontShop International FontFont release 15. This is a customized version of FF DIN.
</metadata>
<defs>
<font id="SapientSansMedium" horiz-adv-x="490" >
  <font-face 
    font-family="SapientSansMedium"
    font-weight="400"
    font-stretch="normal"
    units-per-em="1000"
    panose-1="0 0 4 0 0 0 0 0 0 0"
    ascent="800"
    descent="-200"
    x-height="507"
    cap-height="712"
    bbox="-115 -211 1133 1000"
    underline-thickness="70"
    underline-position="-102"
    unicode-range="U+0020-F002"
  />
<missing-glyph horiz-adv-x="500" 
d="M63 0v789h375v-789h-375zM125 63h250v664h-250v-664z" />
    <glyph glyph-name=".notdef" horiz-adv-x="500" 
d="M63 0v789h375v-789h-375zM125 63h250v664h-250v-664z" />
    <glyph glyph-name=".null" horiz-adv-x="0" 
 />
    <glyph glyph-name="nonmarkingreturn" horiz-adv-x="230" 
 />
    <glyph glyph-name="space" unicode=" " horiz-adv-x="230" 
 />
    <glyph glyph-name="exclam" unicode="!" horiz-adv-x="322" 
d="M240 712l-22 -500h-80l-22 500h124zM234 0h-112v109h112v-109z" />
    <glyph glyph-name="quotedbl" unicode="&#x22;" horiz-adv-x="434" 
d="M361 521h-101v191h101v-191zM174 521h-101v191h101v-191z" />
    <glyph glyph-name="numbersign" unicode="#" horiz-adv-x="662" 
d="M618 426h-92l-20 -124h79v-94h-94l-33 -208h-106l33 208h-137l-32 -208h-107l33 208h-79v94h94l20 124h-81v94h95l31 196h107l-31 -196h136l31 196h106l-31 -196h78v-94zM419 426h-136l-20 -124h137z" />
    <glyph glyph-name="dollar" unicode="$" horiz-adv-x="598" 
d="M551 203q0 -88 -59 -142.5t-157 -63.5v-111h-82v108q-141 6 -228 94l72 71q63 -63 165 -68v222l-26 3q-83 10 -135 58.5t-52 134.5t54.5 142t149.5 65v90h82v-89q114 -7 191 -80l-69 -68q-51 48 -131 54v-216l34 -5q88 -13 133 -53q58 -51 58 -146zM262 414v208
q-51 -5 -79.5 -34.5t-28.5 -74.5q0 -42 28 -67t80 -32zM444 200q0 49 -28 74q-24 21 -90 31v-212q118 11 118 107z" />
    <glyph glyph-name="percent" unicode="%" horiz-adv-x="832" 
d="M779 130q0 -63 -40 -100t-100 -37t-100 37t-40 100v101q0 63 40 100t100 37t100 -37t40 -100v-101zM624 712l-335 -712h-82l336 712h81zM333 481q0 -63 -40 -99.5t-100 -36.5t-100 36.5t-40 99.5v101q0 63 40 100t100 37t100 -37t40 -100v-101zM702 133v95q0 72 -63 72
t-63 -72v-95q0 -72 63 -72t63 72zM256 484v95q0 72 -63 72t-63 -72v-95q0 -71 63 -71t63 71z" />
    <glyph glyph-name="ampersand" unicode="&#x26;" horiz-adv-x="720" 
d="M679 0h-131l-58 70q-87 -76 -197 -76t-170 57t-60 155q0 67 44 120q31 38 97 81q-74 86 -74 153q0 69 48 113.5t126 44.5q75 0 122 -45t47 -114q0 -73 -76 -126l-52 -36l150 -179q37 52 38 143h98q-5 -142 -71 -219zM375 558q0 30 -20 50.5t-51 20.5q-32 0 -51 -19.5
t-19 -50.5q0 -34 55 -98q10 7 34 23q52 35 52 74zM429 142l-169 201q-49 -34 -67 -56q-29 -34 -29 -79q0 -53 36.5 -87t92.5 -34q74 0 136 55z" />
    <glyph glyph-name="quotesingle" unicode="'" horiz-adv-x="247" 
d="M174 521h-101v191h101v-191z" />
    <glyph glyph-name="parenleft" unicode="(" horiz-adv-x="307" 
d="M254 -25l-69 -69q-35 35 -45 46q-23 25 -36 49q-23 41 -23 116v478q0 75 23 116q18 32 81 95l69 -69l-31 -31q-15 -17 -25 -35q-15 -28 -15 -82v-466q0 -54 15 -82q11 -21 56 -66z" />
    <glyph glyph-name="parenright" unicode=")" horiz-adv-x="307" 
d="M227 117q0 -73 -24 -116q-19 -34 -80 -95l-70 70l31 31q14 17 24 35q15 28 15 81v466q0 53 -15 81q-13 24 -55 66l70 70q32 -32 44 -46q23 -25 36 -49q24 -43 24 -116v-478z" />
    <glyph glyph-name="asterisk" unicode="*" horiz-adv-x="475" 
d="M419 466l-37 -65l-111 69l4 -131h-75l4 131l-111 -69l-37 65l115 61l-115 62l37 65l111 -69l-4 130h75l-4 -130l111 69l37 -65l-115 -62z" />
    <glyph glyph-name="plus" unicode="+" horiz-adv-x="523" 
d="M477 225h-168v-168h-95v168h-168v95h168v167h95v-167h168v-95z" />
    <glyph glyph-name="comma" unicode="," horiz-adv-x="262" 
d="M189 -60l-116 -95v271h116v-176z" />
    <glyph glyph-name="hyphen" unicode="-" horiz-adv-x="416" 
d="M354 230h-292v95h292v-95z" />
    <glyph glyph-name="hyphen" unicode="&#x2010;" horiz-adv-x="416" 
d="M354 230h-292v95h292v-95z" />
    <glyph glyph-name="period" unicode="." horiz-adv-x="268" 
d="M195 0h-122v122h122v-122z" />
    <glyph glyph-name="slash" unicode="/" horiz-adv-x="370" 
d="M378 786l-285 -860h-98l285 860h98z" />
    <glyph glyph-name="zero" unicode="0" horiz-adv-x="577" 
d="M494 198q0 -93 -61 -150q-57 -54 -145 -54q-87 0 -146 55.5t-59 148.5v316q0 93 60 150q58 54 145 54q88 0 145 -54q61 -57 61 -150v-316zM392 201v310q0 52 -28 84t-76 32t-75.5 -31.5t-27.5 -84.5v-310q0 -53 27.5 -84.5t75.5 -31.5t76 32t28 84z" />
    <glyph glyph-name="one" unicode="1" horiz-adv-x="432" 
d="M306 0h-102v601l-139 -122v113l139 120h102v-712z" />
    <glyph glyph-name="two" unicode="2" horiz-adv-x="556" 
d="M484 0h-414v91l274 333q38 46 38 95t-27.5 78.5t-76.5 29.5q-45 0 -73 -25q-32 -29 -32 -85h-102q0 90 58 145.5t149 55.5q92 0 149 -54.5t57 -145.5q0 -44 -17 -80q-14 -30 -50 -74l-223 -273h290v-91z" />
    <glyph glyph-name="three" unicode="3" horiz-adv-x="565" 
d="M491 200q0 -99 -64 -155q-60 -52 -154 -52q-92 0 -150 48q-65 53 -68 152h102q3 -54 37 -82q31 -26 79 -26q51 0 83.5 31.5t32.5 86.5q0 117 -119 117h-17v89h17q108 0 108 108q0 52 -30 81t-75 29q-46 0 -74.5 -27.5t-32.5 -74.5h-102q4 89 63 141.5t146 52.5
q91 0 149 -55.5t58 -143.5q0 -108 -89 -152q100 -44 100 -168z" />
    <glyph glyph-name="four" unicode="4" horiz-adv-x="546" 
d="M505 107h-76v-107h-99v107h-288v95l251 510h110l-250 -510h177v166h99v-166h76v-95z" />
    <glyph glyph-name="five" unicode="5" horiz-adv-x="578" 
d="M502 238q0 -129 -60 -189q-56 -56 -150 -56q-97 0 -152 55q-47 47 -54 136h102q13 -99 104 -99q46 0 74 28q34 34 34 125q0 149 -104 149q-81 0 -101 -64h-93v389h384v-91h-292v-188q39 41 118 41q82 0 128 -46q62 -62 62 -190z" />
    <glyph glyph-name="six" unicode="6" horiz-adv-x="536" 
d="M476 211q0 -98 -58.5 -157.5t-151.5 -59.5q-94 0 -152.5 57.5t-58.5 155.5q0 67 53 175l162 330h109l-153 -306q26 11 63 11q79 0 133 -57t54 -149zM374 209q0 54 -29.5 88.5t-79.5 34.5q-49 0 -78.5 -33t-29.5 -90t30 -90.5t78 -33.5q49 0 79 34t30 90z" />
    <glyph glyph-name="seven" unicode="7" horiz-adv-x="515" 
d="M490 621l-238 -621h-110l239 621h-217v-112h-98v203h424v-91z" />
    <glyph glyph-name="eight" unicode="8" horiz-adv-x="579" 
d="M509 201q0 -94 -63 -150.5t-157 -56.5t-155 55q-64 58 -64 152q0 108 98 167q-86 52 -86 153q0 88 59 142.5t148 54.5t148.5 -54.5t59.5 -142.5q0 -101 -86 -153q98 -59 98 -167zM395 518q0 47 -30 78t-76 31t-75.5 -31t-29.5 -78t29.5 -77.5t75.5 -30.5t76 30.5t30 77.5
zM406 203q0 50 -34 84.5t-83 34.5t-83 -34.5t-34 -84.5t34 -84t83 -34t83 34t34 84z" />
    <glyph glyph-name="nine" unicode="9" horiz-adv-x="536" 
d="M481 505q0 -67 -53 -175l-162 -330h-109l153 306q-26 -11 -64 -11q-79 0 -132.5 57t-53.5 149q0 98 58.5 157.5t151.5 59.5q94 0 152.5 -57.5t58.5 -155.5zM379 503q0 56 -30 90t-79 34q-48 0 -78 -33.5t-30 -90.5q0 -54 29 -88.5t79 -34.5q49 0 79 33t30 90z" />
    <glyph glyph-name="colon" unicode=":" horiz-adv-x="293" 
d="M220 285h-121v122h121v-122zM220 0h-121v122h121v-122z" />
    <glyph glyph-name="semicolon" unicode=";" horiz-adv-x="293" 
d="M220 285h-121v122h121v-122zM217 -60l-116 -95v271h116v-176z" />
    <glyph glyph-name="less" unicode="&#x3c;" horiz-adv-x="1017" 
d="M969 229h-744l345 -343h-131l-392 391l392 392h131l-345 -343h744v-97z" />
    <glyph glyph-name="equal" unicode="=" horiz-adv-x="523" 
d="M477 327h-431v95h431v-95zM477 133h-431v95h431v-95z" />
    <glyph glyph-name="greater" unicode="&#x3e;" horiz-adv-x="1017" 
d="M970 277l-392 -391h-131l345 343h-745v97h745l-345 343h131z" />
    <glyph glyph-name="question" unicode="?" horiz-adv-x="501" 
d="M465 527q0 -56 -48 -123l-77 -108q-18 -25 -18 -54v-30h-102v35q0 53 34 99l78 105q31 42 31 76q0 43 -27.5 71.5t-70.5 28.5q-45 0 -71 -29.5t-26 -71.5h-102q0 84 57 138t142 54q84 0 141 -51q59 -54 59 -140zM327 0h-113v109h113v-109z" />
    <glyph glyph-name="at" unicode="@" horiz-adv-x="823" 
d="M540 -44h-254q-47 0 -81.5 34.5t-34.5 81.5v361q0 47 34.5 81.5t81.5 34.5h254q46 0 79 -33t33 -80v-245q0 -53 -37 -53q-35 0 -35 53v266h-90v-32q-40 28 -100 28q-78 0 -121 -58q-32 -44 -32 -138q0 -93 35 -140q40 -53 117 -53q72 0 120 42q37 -52 108 -52q46 0 83 32
q43 38 43 100v241q0 85 -60.5 145.5t-146.5 60.5h-250q-85 0 -145.5 -60t-60.5 -146v-353q0 -86 60.5 -146t145.5 -60h250q63 0 112 31t71 89l-90 21q-24 -53 -89 -53zM409 154q-38 0 -53.5 23t-15.5 80q0 58 15.5 82t53.5 24t53.5 -24t15.5 -82q0 -57 -15.5 -80t-53.5 -23z
" />
    <glyph glyph-name="A" unicode="A" horiz-adv-x="615" 
d="M612 0h-115l-49 143h-281l-49 -143h-115l261 712h87zM418 235l-108 316l-111 -316h219z" />
    <glyph glyph-name="B" unicode="B" horiz-adv-x="653" 
d="M591 201q0 -96 -59 -148.5t-156 -52.5h-288v712h277q99 0 157 -52.5t58 -142.5q0 -54 -30 -97q-27 -38 -66 -54q107 -43 107 -165zM472 513q0 49 -31.5 75.5t-84.5 26.5h-160v-204h160q53 0 84.5 26.5t31.5 75.5zM483 206q0 48 -31 78t-86 30h-170v-217h170q55 0 86 30
t31 79z" />
    <glyph glyph-name="C" unicode="C" horiz-adv-x="618" 
d="M572 213q-18 -104 -86.5 -161.5t-167.5 -57.5q-111 0 -187 76q-48 48 -61 118q-8 44 -8 168t8 168q13 70 61 118q76 76 187 76q100 0 168 -57t86 -162h-110q-29 122 -144 122q-65 0 -105 -43q-32 -35 -40 -106q-3 -25 -3 -116t3 -116q8 -71 40 -106q40 -43 105 -43
q116 0 145 122h109z" />
    <glyph glyph-name="D" unicode="D" horiz-adv-x="656" 
d="M594 361q0 -113 -7 -157q-14 -86 -65 -137q-67 -67 -184 -67h-250v712h250q117 0 184 -67q51 -51 65 -132q7 -42 7 -152zM486 361q0 89 -5 124q-8 54 -33 82q-43 48 -121 48h-131v-518h131q78 0 121 48q25 28 33 87q5 38 5 129z" />
    <glyph glyph-name="E" unicode="E" horiz-adv-x="593" 
d="M543 0h-455v712h455v-97h-347v-208h296v-96h-296v-214h347v-97z" />
    <glyph glyph-name="F" unicode="F" horiz-adv-x="575" 
d="M543 615h-347v-217h296v-97h-296v-301h-108v712h455v-97z" />
    <glyph glyph-name="G" unicode="G" horiz-adv-x="639" 
d="M578 276q0 -133 -64 -201q-76 -81 -196 -81q-111 0 -187 76q-48 48 -61 118q-8 44 -8 168t8 168q13 70 61 118q76 76 187 76q108 0 179 -65q64 -59 80 -156h-109q-29 124 -150 124q-64 0 -105 -44q-32 -35 -40 -105q-3 -25 -3 -116t3 -116q8 -71 40 -106q40 -43 105 -43
q72 0 116 50q36 41 36 112v40h-152v92h260v-109z" />
    <glyph glyph-name="H" unicode="H" horiz-adv-x="681" 
d="M593 0h-108v311h-289v-311h-108v712h108v-304h289v304h108v-712z" />
    <glyph glyph-name="I" unicode="I" horiz-adv-x="284" 
d="M196 0h-108v712h108v-712z" />
    <glyph glyph-name="J" unicode="J" horiz-adv-x="496" 
d="M418 225q0 -107 -69 -171q-66 -60 -168 -60q-104 0 -173 69l72 71q43 -43 101 -43q61 0 95 36.5t34 105.5v479h108v-487z" />
    <glyph glyph-name="K" unicode="K" horiz-adv-x="648" 
d="M643 0h-127l-200 351l-120 -144v-207h-108v712h108v-358l291 358h132l-231 -279z" />
    <glyph glyph-name="L" unicode="L" horiz-adv-x="564" 
d="M539 0h-451v712h108v-615h343v-97z" />
    <glyph glyph-name="M" unicode="M" horiz-adv-x="803" 
d="M716 0h-108v476l-164 -347h-80l-168 347v-476h-108v712h108l208 -443l204 443h108v-712z" />
    <glyph glyph-name="N" unicode="N" horiz-adv-x="712" 
d="M624 0h-99l-329 501v-501h-108v712h99l329 -500v500h108v-712z" />
    <glyph glyph-name="O" unicode="O" horiz-adv-x="636" 
d="M574 356q0 -125 -8 -168q-12 -70 -60 -118q-76 -76 -188 -76q-111 0 -187 76q-48 48 -61 118q-8 44 -8 168t8 168q13 70 61 118q76 76 187 76q112 0 188 -76q48 -48 60 -118q8 -43 8 -168zM466 356q0 91 -3 116q-7 71 -39 105q-41 44 -106 44t-106 -44q-32 -34 -39 -105
q-3 -25 -3 -116t3 -116q7 -71 39 -105q41 -44 106 -44t106 44q32 34 39 105q3 25 3 116z" />
    <glyph glyph-name="P" unicode="P" horiz-adv-x="619" 
d="M586 496q0 -94 -62.5 -155t-165.5 -61h-162v-280h-108v712h270q103 0 165.5 -61t62.5 -155zM478 496q0 56 -34.5 87.5t-91.5 31.5h-156v-237h156q57 0 91.5 31.5t34.5 86.5z" />
    <glyph glyph-name="Q" unicode="Q" horiz-adv-x="636" 
d="M598 28l-60 -60l-71 71q-64 -45 -149 -45q-111 0 -187 76q-48 48 -61 118q-8 44 -8 168t8 168q13 70 61 118q76 76 187 76q112 0 188 -76q48 -48 60 -118q8 -43 8 -168q0 -111 -5 -151q-9 -65 -41 -108zM466 356q0 91 -3 116q-7 71 -39 105q-41 44 -106 44t-106 -44
q-32 -34 -39 -105q-3 -25 -3 -116t3 -116q7 -71 39 -105q41 -44 106 -44q41 0 73 23l-75 75l60 60l69 -69q21 42 21 176z" />
    <glyph glyph-name="R" unicode="R" horiz-adv-x="645" 
d="M607 0h-126l-150 300h-135v-300h-108v712h276q100 0 160.5 -58t60.5 -150q0 -73 -39.5 -122.5t-102.5 -66.5zM477 503q0 52 -33 82t-88 30h-160v-223h160q55 0 88 29.5t33 81.5z" />
    <glyph glyph-name="S" unicode="S" horiz-adv-x="580" 
d="M533 203q0 -97 -71 -153t-185 -56q-159 0 -252 94l72 71q68 -68 182 -68q70 0 108.5 28.5t38.5 80.5q0 48 -28 74q-24 22 -78 30l-84 12q-88 13 -135 57q-52 49 -52 136q0 94 64 151.5t174 57.5q134 0 221 -81l-69 -68q-58 55 -155 55q-61 0 -95.5 -31t-34.5 -80
q0 -42 27.5 -66.5t79.5 -32.5l81 -12q88 -13 133 -53q58 -51 58 -146z" />
    <glyph glyph-name="T" unicode="T" horiz-adv-x="550" 
d="M525 615h-196v-615h-108v615h-196v97h500v-97z" />
    <glyph glyph-name="U" unicode="U" horiz-adv-x="665" 
d="M588 240q0 -109 -73 -177.5t-183 -68.5t-182.5 68.5t-72.5 177.5v472h108v-467q0 -71 40 -112.5t107 -41.5t107.5 41.5t40.5 112.5v467h108v-472z" />
    <glyph glyph-name="V" unicode="V" horiz-adv-x="554" 
d="M554 712l-236 -712h-84l-234 712h112l164 -518l164 518h114z" />
    <glyph glyph-name="W" unicode="W" horiz-adv-x="861" 
d="M855 712l-186 -712h-94l-145 499l-144 -499h-94l-186 712h114l124 -509l143 509h87l143 -509l124 509h114z" />
    <glyph glyph-name="X" unicode="X" horiz-adv-x="568" 
d="M563 0h-125l-155 273l-154 -273h-124l220 365l-206 347h124l140 -255l141 255h124l-206 -347z" />
    <glyph glyph-name="Y" unicode="Y" horiz-adv-x="534" 
d="M534 712l-213 -419v-293h-108v293l-213 419h118l149 -313l149 313h118z" />
    <glyph glyph-name="Z" unicode="Z" horiz-adv-x="542" 
d="M499 0h-456v93l329 522h-315v97h442v-88l-331 -527h331v-97z" />
    <glyph glyph-name="bracketleft" unicode="[" horiz-adv-x="337" 
d="M299 -74h-218v860h218v-91h-116v-678h116v-91z" />
    <glyph glyph-name="backslash" unicode="\" horiz-adv-x="370" 
d="M375 -74h-98l-282 852h98z" />
    <glyph glyph-name="bracketright" unicode="]" horiz-adv-x="337" 
d="M256 -74h-218v90h118v680h-118v90h218v-860z" />
    <glyph glyph-name="asciicircum" unicode="^" horiz-adv-x="561" 
d="M498 401h-106l-112 207l-112 -207h-106l172 318h93z" />
    <glyph glyph-name="underscore" unicode="_" horiz-adv-x="561" 
d="M566 -172h-571v70h571v-70z" />
    <glyph glyph-name="grave" unicode="`" 
d="M297 599h-77l-111 162h113z" />
    <glyph glyph-name="a" unicode="a" horiz-adv-x="520" 
d="M449 0h-100v46q-52 -52 -135 -52q-91 0 -136 46q-40 41 -40 109q0 66 45 106t130 40h134v36q0 95 -111 95q-73 0 -111 -49l-67 63q35 41 78 58q39 15 104 15q209 0 209 -174v-339zM347 183v41h-119q-91 0 -91 -73q0 -72 93 -72q65 0 95 29q22 21 22 75z" />
    <glyph glyph-name="b" unicode="b" horiz-adv-x="543" 
d="M491 254q0 -158 -57 -215q-45 -45 -124 -45q-84 0 -134 60v-54h-100v712h102v-256q48 57 133 57q78 0 123 -45q57 -57 57 -214zM389 254q0 80 -18 118q-24 50 -87 50t-87 -50q-19 -38 -19 -118t19 -118q24 -51 87 -51t87 51q18 38 18 118z" />
    <glyph glyph-name="c" unicode="c" horiz-adv-x="475" 
d="M443 66q-68 -72 -167 -72q-96 0 -156 59q-70 68 -70 201t70 201q60 58 156 58q100 0 167 -71l-70 -68q-44 48 -97 48q-59 0 -94 -45q-30 -39 -30 -123q0 -85 30 -124q35 -45 94 -45q53 0 97 48z" />
    <glyph glyph-name="d" unicode="d" horiz-adv-x="543" 
d="M467 0h-100v54q-50 -60 -134 -60q-79 0 -124 45q-57 57 -57 215q0 157 57 214q45 45 123 45q85 0 133 -57v256h102v-712zM365 254q0 80 -18 118q-24 50 -87 50t-87 -50q-19 -38 -19 -118t19 -118q24 -51 87 -51t87 51q18 38 18 118z" />
    <glyph glyph-name="e" unicode="e" horiz-adv-x="529" 
d="M480 224h-329q0 -66 33.5 -104t95.5 -38q71 0 123 52l65 -61q-41 -41 -81 -59q-45 -20 -109 -20q-228 0 -228 260q0 122 58 190.5t157 68.5q100 0 159 -68q56 -66 56 -176v-45zM379 295q-1 39 -14 69q-27 64 -100 64q-74 0 -101 -64q-12 -27 -13 -69h228z" />
    <glyph glyph-name="f" unicode="f" horiz-adv-x="318" 
d="M295 420h-101v-420h-102v420h-58v78h58v78q0 59 34 98q38 43 105 43h64v-87h-45q-56 0 -56 -59v-73h101v-78z" />
    <glyph glyph-name="g" unicode="g" horiz-adv-x="539" 
d="M463 3q0 -95 -58.5 -154.5t-158.5 -59.5q-107 0 -179 67l65 65q48 -45 110 -45q61 0 92 39q27 34 27 90v65q-49 -58 -131 -58q-76 0 -121 45q-57 57 -57 206t57 206q44 44 122 44q83 0 133 -60v54h99v-504zM361 263q0 74 -17 110q-24 49 -86 49t-86 -49q-18 -36 -18 -110
t18 -109q24 -50 86 -50t86 50q17 35 17 109z" />
    <glyph glyph-name="h" unicode="h" horiz-adv-x="556" 
d="M485 0h-102v311q0 55 -28.5 83t-73.5 28t-73 -27q-30 -30 -30 -84v-311h-102v712h102v-256q53 57 131 57q83 0 129.5 -51t46.5 -135v-327z" />
    <glyph glyph-name="i" unicode="i" horiz-adv-x="254" 
d="M181 607h-108v108h108v-108zM178 0h-102v507h102v-507z" />
    <glyph glyph-name="j" unicode="j" horiz-adv-x="254" 
d="M181 607h-108v108h108v-108zM178 -67q0 -61 -33 -98q-37 -42 -106 -42h-63v87h45q55 0 55 59v568h102v-574z" />
    <glyph glyph-name="k" unicode="k" horiz-adv-x="538" 
d="M521 0h-126l-142 234l-75 -85v-149h-102v712h102v-439l197 234h124l-176 -199z" />
    <glyph glyph-name="l" unicode="l" horiz-adv-x="301" 
d="M275 0h-63q-69 0 -106 42q-33 37 -33 98v572h102v-566q0 -59 55 -59h45v-87z" />
    <glyph glyph-name="m" unicode="m" horiz-adv-x="867" 
d="M796 0h-102v309q0 57 -30 86q-26 27 -72 27q-44 0 -73 -27q-32 -29 -32 -81v-314h-102v309q0 57 -30 86q-26 27 -72 27t-74 -27q-31 -30 -31 -86v-309h-102v507h100v-51q52 57 135 57q96 0 144 -74q61 74 159 74q81 0 128 -46q54 -52 54 -143v-324z" />
    <glyph glyph-name="n" unicode="n" horiz-adv-x="558" 
d="M487 0h-102v309q0 57 -30 86q-26 27 -72 27t-74 -27q-31 -30 -31 -86v-309h-102v507h100v-51q53 57 135 57q78 0 125 -46q51 -50 51 -143v-324z" />
    <glyph glyph-name="o" unicode="o" horiz-adv-x="527" 
d="M475 254q0 -138 -59 -199t-153 -61q-93 0 -152 61t-59 199q0 137 59 198t152 61q94 0 153 -61t59 -198zM373 254q0 104 -35 139q-29 29 -75 29q-45 0 -74 -29q-35 -35 -35 -139t35 -139q30 -30 74 -30q45 0 75 30q35 35 35 139z" />
    <glyph glyph-name="p" unicode="p" horiz-adv-x="543" 
d="M491 254q0 -158 -57 -215q-45 -45 -123 -45q-84 0 -133 58v-257h-102v712h100v-54q50 60 134 60q79 0 124 -45q57 -57 57 -214zM389 254q0 80 -18 118q-24 50 -87 50t-87 -50q-19 -38 -19 -118t19 -118q24 -51 87 -51t87 51q18 38 18 118z" />
    <glyph glyph-name="q" unicode="q" horiz-adv-x="543" 
d="M467 -205h-102v257q-49 -58 -133 -58q-78 0 -123 45q-57 57 -57 215q0 157 57 214q45 45 124 45q84 0 134 -60v54h100v-712zM365 254q0 80 -18 118q-24 50 -87 50t-87 -50q-19 -38 -19 -118t19 -118q24 -51 87 -51t87 51q18 38 18 118z" />
    <glyph glyph-name="r" unicode="r" horiz-adv-x="429" 
d="M432 465l-77 -77q-34 34 -76 34q-43 0 -72 -31.5t-29 -82.5v-308h-102v507h100v-55q44 61 135 61q73 0 121 -48z" />
    <glyph glyph-name="s" unicode="s" horiz-adv-x="489" 
d="M451 155q0 -77 -58.5 -119t-152.5 -42q-139 0 -213 73l67 67q52 -53 146 -53q111 0 111 70q0 54 -68 60l-81 7q-150 13 -150 140q0 72 56 115q53 40 135 40q123 0 188 -57l-64 -65q-44 37 -125 37q-92 0 -92 -65q0 -52 70 -58l80 -7q151 -13 151 -143z" />
    <glyph glyph-name="t" unicode="t" horiz-adv-x="332" 
d="M288 0h-61q-67 0 -105 43q-34 39 -34 98v279h-58v78h58v154h102v-154h98v-78h-98v-274q0 -59 56 -59h42v-87z" />
    <glyph glyph-name="u" unicode="u" horiz-adv-x="558" 
d="M482 0h-100v51q-52 -57 -135 -57q-78 0 -125 46q-51 50 -51 143v324h102v-309q0 -56 30 -86q27 -27 72 -27q46 0 75.5 28.5t29.5 84.5v309h102v-507z" />
    <glyph glyph-name="v" unicode="v" horiz-adv-x="461" 
d="M458 507l-186 -507h-83l-186 507h108l120 -357l119 357h108z" />
    <glyph glyph-name="w" unicode="w" horiz-adv-x="733" 
d="M730 507l-158 -507h-87l-119 354l-118 -354h-88l-157 507h108l98 -357l118 357h79l117 -357l98 357h109z" />
    <glyph glyph-name="x" unicode="x" horiz-adv-x="493" 
d="M476 0h-123l-106 173l-107 -173h-123l174 259l-167 248h123l100 -165l99 165h123l-166 -248z" />
    <glyph glyph-name="y" unicode="y" horiz-adv-x="458" 
d="M459 507l-224 -608q-15 -41 -37 -63q-37 -37 -104 -37h-41v92h26q32 0 47 11.5t26 42.5l28 79l-177 483h108l121 -357l118 357h109z" />
    <glyph glyph-name="z" unicode="z" horiz-adv-x="459" 
d="M416 0h-378v81l252 335h-238v91h364v-81l-254 -335h254v-91z" />
    <glyph glyph-name="braceleft" unicode="{" horiz-adv-x="397" 
d="M357 -74h-71q-73 0 -108 35t-35 104v167q0 42 -18.5 60.5t-47.5 18.5h-37v90h37q29 0 47.5 18.5t18.5 60.5v167q0 69 35 104t108 35h71v-91h-39q-45 0 -59 -15t-14 -63v-161q0 -71 -66 -100q66 -29 66 -100v-161q0 -54 20 -68q13 -10 53 -10h39v-91z" />
    <glyph glyph-name="bar" unicode="|" horiz-adv-x="328" 
d="M215 -74h-102v860h102v-860z" />
    <glyph glyph-name="braceright" unicode="}" horiz-adv-x="397" 
d="M357 311h-36q-30 0 -48.5 -18.5t-18.5 -60.5v-167q0 -69 -35 -104t-108 -35h-71v91h39q45 0 59 15t14 63v161q0 71 67 100q-67 29 -67 100v161q0 54 -20 68q-13 10 -53 10h-39v91h71q73 0 108 -35t35 -104v-167q0 -42 18.5 -60.5t48.5 -18.5h36v-90z" />
    <glyph glyph-name="asciitilde" unicode="~" horiz-adv-x="564" 
d="M526 280q-44 -44 -76 -61t-72 -17q-45 0 -112 33q-49 24 -79 24q-41 0 -85 -44l-64 64q44 44 75.5 61t71.5 17q44 0 111 -33q49 -24 80 -24q41 0 85 44z" />
    <glyph glyph-name="dagger" unicode="&#x2020;" horiz-adv-x="581" 
d="M521 427h-180v-427h-102v427h-179v91h179v194h102v-194h180v-91z" />
    <glyph glyph-name="cent" unicode="&#xa2;" horiz-adv-x="488" 
d="M454 184q-60 -64 -141 -74v-110h-80v111q-83 14 -132 78q-51 68 -51 177t51 177q49 64 132 78v91h80v-90q81 -10 141 -74l-68 -66q-37 41 -82 48v-328q45 7 82 48zM242 204v324q-35 -7 -58 -39q-32 -44 -32 -123q0 -81 31 -123q23 -32 59 -39z" />
    <glyph glyph-name="sterling" unicode="&#xa3;" horiz-adv-x="554" 
d="M511 0h-411v313h-62v78h62v96q0 107 70 171q66 60 168 60q104 0 173 -69l-72 -71q-43 43 -101 43q-61 0 -95 -36.5t-34 -105.5v-88h129v-78h-129v-216h302v-97z" />
    <glyph glyph-name="section" unicode="&#xa7;" horiz-adv-x="533" 
d="M467 264q0 -54 -32 -99q-26 -37 -65 -57q88 -39 88 -141q0 -82 -58 -132q-53 -46 -133 -46t-132 41q-59 46 -62 129h100q6 -79 94 -79q43 0 67 22.5t24 61.5q0 65 -78 88l-70 21q-141 42 -141 186q0 54 31 99q27 37 66 57q-84 41 -84 134q0 72 50 120.5t136 48.5
t136 -45.5t52 -119.5h-98q-6 76 -90 76q-88 0 -88 -77q0 -59 75 -81l70 -21q142 -43 142 -186zM367 261q0 53 -29.5 80.5t-69.5 27.5q-45 0 -72 -29t-27 -79q0 -49 27 -78t72 -29q44 0 71.5 29.5t27.5 77.5z" />
    <glyph glyph-name="bullet" unicode="&#x2022;" horiz-adv-x="502" 
d="M414 334q0 -67 -47.5 -115t-115.5 -48q-67 0 -115 48t-48 115q0 68 48 115.5t115 47.5q68 0 115.5 -47.5t47.5 -115.5z" />
    <glyph glyph-name="paragraph" unicode="&#xb6;" horiz-adv-x="627" 
d="M539 -205h-102v820h-108v-820h-102v522q-81 0 -137.5 58t-56.5 138q0 90 61.5 144.5t163.5 54.5h281v-917z" />
    <glyph glyph-name="germandbls" unicode="&#xdf;" horiz-adv-x="555" 
d="M496 152q0 -75 -41.5 -113.5t-113.5 -38.5h-53v87h32q31 0 52 17t21 57v156q0 36 -19 54t-51 18h-35v81h31q33 0 53.5 19.5t20.5 55.5q0 37 -25.5 60.5t-80.5 23.5q-108 0 -108 -113v-516h-103v522q0 96 60 148q56 49 154 49q92 0 146 -41q59 -45 59 -130q0 -76 -62 -116
q63 -32 63 -115v-165z" />
    <glyph glyph-name="acute" unicode="&#xb4;" 
d="M381 761l-111 -162h-77l75 162h113z" />
    <glyph glyph-name="dieresis" unicode="&#xa8;" 
d="M399 604h-92v108h92v-108zM183 604h-92v108h92v-108z" />
    <glyph glyph-name="AE" unicode="&#xc6;" horiz-adv-x="942" 
d="M892 0h-455v162h-235l-84 -162h-118l374 712h518v-97h-347v-209h296v-97h-296v-212h347v-97zM437 254v361l-188 -361h188z" />
    <glyph glyph-name="Oslash" unicode="&#xd8;" horiz-adv-x="642" 
d="M574 356q0 -125 -8 -168q-12 -70 -60 -118q-76 -76 -188 -76q-63 0 -119 27l-31 -65h-82l51 108l-6 6q-48 48 -61 118q-8 44 -8 168t8 168q13 70 61 118q76 76 187 76q64 0 120 -27l30 65h83l-52 -108q2 -2 7 -6q48 -48 60 -118q8 -43 8 -168zM398 599q-36 22 -80 22
q-64 0 -105 -44q-32 -34 -39 -105q-3 -25 -3 -116q0 -147 20 -190zM466 356q0 150 -20 190l-207 -433q35 -22 79 -22q65 0 106 44q32 34 39 105q3 25 3 116z" />
    <glyph glyph-name="yen" unicode="&#xa5;" horiz-adv-x="534" 
d="M533 712l-146 -290h87v-78h-127l-26 -51v-52h153v-78h-153v-163h-108v163h-153v78h153v52l-26 51h-127v78h87l-147 290h118l150 -314l148 314h117z" />
    <glyph glyph-name="ordfeminine" unicode="&#xaa;" horiz-adv-x="442" 
d="M374 307h-81v36q-40 -40 -106 -40q-72 0 -108 36q-32 32 -32 87q0 53 36 85t103 32h105v28q0 74 -87 74q-56 0 -87 -39l-55 52q49 58 146 58q166 0 166 -139v-270zM291 453v32h-93q-70 0 -70 -57q0 -55 71 -55q52 0 75 22q17 16 17 58z" />
    <glyph glyph-name="ordmasculine" unicode="&#xba;" horiz-adv-x="448" 
d="M393 510q0 -110 -47.5 -158.5t-121.5 -48.5q-73 0 -120.5 48.5t-47.5 158.5q0 109 47.5 157.5t120.5 48.5q74 0 121.5 -48.5t47.5 -157.5zM309 510q0 83 -26 109q-23 23 -59 23q-35 0 -58 -23q-27 -27 -27 -109q0 -83 27 -110q23 -23 58 -23q36 0 60.5 24.5t24.5 108.5z
" />
    <glyph glyph-name="ae" unicode="&#xe6;" horiz-adv-x="827" 
d="M777 224h-329q0 -66 33.5 -104t95.5 -38q71 0 123 52l65 -61q-41 -41 -81 -59q-45 -20 -109 -20q-120 0 -179 79q-37 -45 -78.5 -62t-103.5 -17q-91 0 -136 46q-40 41 -40 109q0 66 45 106t130 40h134v36q0 95 -111 95q-73 0 -111 -49l-67 63q35 41 78 58q39 15 104 15
q125 0 172 -67q55 67 150 67q100 0 159 -68q56 -66 56 -176v-45zM676 295q-1 42 -13 69q-27 64 -101 64q-73 0 -100 -64q-13 -30 -14 -69h228zM347 183v41h-119q-91 0 -91 -73q0 -72 93 -72q65 0 95 29q22 21 22 75z" />
    <glyph glyph-name="oslash" unicode="&#xf8;" horiz-adv-x="527" 
d="M475 254q0 -138 -59 -199t-153 -61q-57 0 -104 25l-37 -63h-69l58 99q-59 61 -59 199q0 137 59 198t152 61q58 0 105 -25l37 63h69l-59 -98q60 -62 60 -199zM323 405q-26 17 -60 17q-45 0 -74 -29q-35 -35 -35 -139q0 -74 15 -109zM373 254q0 74 -15 109l-154 -260
q26 -18 59 -18q45 0 75 30q35 35 35 139z" />
    <glyph glyph-name="questiondown" unicode="&#xbf;" horiz-adv-x="501" 
d="M286 398h-112v109h112v-109zM435 -19q0 -84 -57 -138t-143 -54q-84 0 -140 52q-59 54 -59 140q0 58 47 123l78 108q18 25 18 54v30h102v-36q0 -51 -35 -99l-77 -105q-31 -42 -31 -76q0 -43 27 -71t70 -28q45 0 71.5 29t26.5 71h102z" />
    <glyph glyph-name="exclamdown" unicode="&#xa1;" horiz-adv-x="322" 
d="M200 398h-112v109h112v-109zM206 -205h-124l22 500h80z" />
    <glyph glyph-name="florin" unicode="&#x192;" horiz-adv-x="405" 
d="M380 630h-59q-56 0 -66 -59l-32 -180h101v-78h-115l-91 -518h-102l91 518h-82v78h96l33 185q11 59 51 98q45 43 112 43h63v-87z" />
    <glyph glyph-name="guillemotleft" unicode="&#xab;" horiz-adv-x="582" 
d="M515 42l-230 230l230 229v-123l-108 -106l108 -107v-123zM262 42l-230 230l230 229v-123l-107 -106l107 -107v-123z" />
    <glyph glyph-name="guillemotright" unicode="&#xbb;" horiz-adv-x="582" 
d="M551 272l-231 -230v123l107 107l-107 106v123zM298 272l-231 -230v123l108 107l-108 106v123z" />
    <glyph glyph-name="ellipsis" unicode="&#x2026;" horiz-adv-x="793" 
d="M720 0h-117v117h117v-117zM455 0h-117v117h117v-117zM190 0h-117v117h117v-117z" />
    <glyph glyph-name="OE" unicode="&#x152;" horiz-adv-x="967" 
d="M917 0h-451v58q-55 -64 -150 -64q-111 0 -185 74q-47 47 -60 118q-9 47 -9 170t9 170q13 71 60 118q74 74 185 74q95 0 150 -64v58h450v-96h-342v-210h291v-94h-291v-216h343v-96zM466 356q0 91 -3 116q-7 71 -39 105q-41 44 -106 44q-64 0 -105 -44q-32 -34 -39 -105
q-3 -25 -3 -116t3 -116q7 -71 39 -105q41 -44 105 -44q65 0 106 44q32 34 39 105q3 25 3 116z" />
    <glyph glyph-name="oe" unicode="&#x153;" horiz-adv-x="852" 
d="M802 224h-329q0 -66 33.5 -104t95.5 -38q71 0 123 52l65 -61q-42 -42 -81 -59q-44 -20 -108 -20q-118 0 -175 80q-52 -80 -163 -80q-93 0 -152 61t-59 199q0 137 59 198t152 61q112 0 164 -81q53 81 160 81q100 0 159 -68q56 -66 56 -176v-45zM701 295q-1 42 -13 69
q-27 64 -101 64q-73 0 -100 -64q-13 -30 -14 -69h228zM373 254q0 104 -35 139q-29 29 -75 29q-45 0 -74 -29q-35 -35 -35 -139t35 -139q30 -30 74 -30q45 0 75 30q35 35 35 139z" />
    <glyph glyph-name="endash" unicode="&#x2013;" horiz-adv-x="523" 
d="M477 230h-431v95h431v-95z" />
    <glyph glyph-name="emdash" unicode="&#x2014;" horiz-adv-x="962" 
d="M900 231h-838v97h838v-97z" />
    <glyph glyph-name="quotedblleft" unicode="&#x201c;" horiz-adv-x="449" 
d="M376 608h-112v104l112 93v-197zM185 608h-112v104l112 93v-197z" />
    <glyph glyph-name="quotedblright" unicode="&#x201d;" horiz-adv-x="449" 
d="M376 607l-112 -91v196h112v-105zM185 607l-112 -91v196h112v-105z" />
    <glyph glyph-name="quoteleft" unicode="&#x2018;" horiz-adv-x="258" 
d="M185 608h-112v104l112 93v-197z" />
    <glyph glyph-name="quoteright" unicode="&#x2019;" horiz-adv-x="258" 
d="M185 607l-112 -91v196h112v-105z" />
    <glyph glyph-name="fraction" unicode="&#x2044;" horiz-adv-x="187" 
d="M302 712l-335 -712h-82l335 712h82z" />
    <glyph glyph-name="currency" unicode="&#xa4;" horiz-adv-x="655" 
d="M592 81l-67 -67l-74 74q-55 -38 -124 -38t-124 38l-73 -74l-67 67l73 74q-38 55 -38 124t38 124l-73 73l67 67l73 -73q54 37 124 37t124 -37l74 73l67 -67l-74 -73q38 -55 38 -124t-38 -124zM463 279q0 56 -40 95.5t-96 39.5t-96 -39.5t-40 -95.5t40 -96t96 -40t96 40
t40 96z" />
    <glyph glyph-name="guilsinglleft" unicode="&#x2039;" horiz-adv-x="329" 
d="M262 42l-230 230l230 229v-123l-107 -106l107 -107v-123z" />
    <glyph glyph-name="guilsinglright" unicode="&#x203a;" horiz-adv-x="329" 
d="M298 272l-231 -230v123l108 107l-108 106v123z" />
    <glyph glyph-name="fi" unicode="&#xf001;" horiz-adv-x="573" 
d="M500 624h-109v91h109v-91zM496 0h-102v498h102v-498zM292 420h-100v-420h-102v420h-58v78h58v78q0 59 34 98q38 43 105 43h63v-87h-45q-55 0 -55 -59v-73h100v-78z" />
    <glyph glyph-name="fl" unicode="&#xf002;" horiz-adv-x="616" 
d="M594 0h-63q-69 0 -106 42q-33 37 -33 98v572h102v-566q0 -59 55 -59h45v-87zM292 420h-100v-420h-102v420h-58v78h58v78q0 59 34 98q38 43 105 43h63v-87h-45q-55 0 -55 -59v-73h100v-78z" />
    <glyph glyph-name="daggerdbl" unicode="&#x2021;" horiz-adv-x="581" 
d="M521 -11h-180v-194h-102v194h-179v92h179v346h-179v91h179v194h102v-194h180v-91h-180v-346h180v-92z" />
    <glyph glyph-name="periodcentered" unicode="&#xb7;" horiz-adv-x="268" 
d="M195 217h-122v122h122v-122z" />
    <glyph glyph-name="periodcentered" unicode="&#x2219;" horiz-adv-x="268" 
d="M195 217h-122v122h122v-122z" />
    <glyph glyph-name="quotesinglbase" unicode="&#x201a;" horiz-adv-x="257" 
d="M185 0l-112 -92v197h112v-105z" />
    <glyph glyph-name="quotedblbase" unicode="&#x201e;" horiz-adv-x="450" 
d="M376 0l-112 -92v197h112v-105zM185 0l-112 -92v197h112v-105z" />
    <glyph glyph-name="perthousand" unicode="&#x2030;" horiz-adv-x="1186" 
d="M779 130q0 -63 -40 -100t-100 -37t-100 37t-40 100v101q0 63 40 100t100 37t100 -37t40 -100v-101zM624 712l-335 -712h-82l336 712h81zM333 481q0 -63 -40 -99.5t-100 -36.5t-100 36.5t-40 99.5v101q0 63 40 100t100 37t100 -37t40 -100v-101zM702 133v95q0 72 -63 72
t-63 -72v-95q0 -72 63 -72t63 72zM256 484v95q0 72 -63 72t-63 -72v-95q0 -71 63 -71t63 71zM1133 130q0 -63 -40 -100t-100 -37t-100 37t-40 100v101q0 63 40 100t100 37t100 -37t40 -100v-101zM1056 133v95q0 72 -63 72t-63 -72v-95q0 -72 63 -72t63 72z" />
    <glyph glyph-name="dotlessi" unicode="&#x131;" horiz-adv-x="254" 
d="M178 0h-102v507h102v-507z" />
    <glyph glyph-name="circumflex" unicode="&#x2c6;" 
d="M417 599h-85l-87 97l-87 -97h-85l129 161h86z" />
    <glyph glyph-name="tilde" unicode="&#x2dc;" 
d="M414 667q-55 -55 -104 -55q-35 0 -75 23q-33 19 -56 19q-28 0 -58 -30l-48 47q55 55 104 55q35 0 75 -24q32 -19 55 -19q28 0 59 31z" />
    <glyph glyph-name="macron" unicode="&#xaf;" 
d="M400 622h-310v73h310v-73z" />
    <glyph glyph-name="macron" unicode="&#x2c9;" 
d="M400 622h-310v73h310v-73z" />
    <glyph glyph-name="breve" unicode="&#x2d8;" 
d="M410 735q-9 -145 -164 -145q-157 0 -166 145h74q9 -71 92 -71t92 71h72z" />
    <glyph glyph-name="dotaccent" unicode="&#x2d9;" 
d="M299 620h-108v91h108v-91z" />
    <glyph glyph-name="ring" unicode="&#x2da;" 
d="M370 701q0 -52 -36.5 -88.5t-88.5 -36.5t-88.5 36.5t-36.5 88.5t36.5 88.5t88.5 36.5t88.5 -36.5t36.5 -88.5zM309 701q0 26 -19 44.5t-45 18.5t-45 -18.5t-19 -44.5t19 -44.5t45 -18.5t45 18.5t19 44.5z" />
    <glyph glyph-name="cedilla" unicode="&#xb8;" 
d="M314 -64l-51 -147h-101l70 147h82z" />
    <glyph glyph-name="hungarumlaut" unicode="&#x2dd;" 
d="M451 761l-112 -162h-76l76 162h112zM266 761l-111 -162h-77l75 162h113z" />
    <glyph glyph-name="ogonek" unicode="&#x2db;" 
d="M324 -211h-101l-51 147h82z" />
    <glyph glyph-name="caron" unicode="&#x2c7;" 
d="M417 760l-129 -161h-86l-129 161h85l87 -97l87 97h85z" />
    <glyph glyph-name="Lslash" unicode="&#x141;" horiz-adv-x="577" 
d="M552 0h-450v266l-69 -44v93l69 43v354h108v-286l141 89v-91l-141 -89v-238h342v-97z" />
    <glyph glyph-name="lslash" unicode="&#x142;" horiz-adv-x="316" 
d="M289 0h-63q-69 0 -106 42q-33 37 -33 98v181l-59 -36v87l59 36v304h102v-242l70 43v-86l-70 -44v-237q0 -59 55 -59h45v-87z" />
    <glyph glyph-name="Eth" unicode="&#xd0;" horiz-adv-x="674" 
d="M612 356q0 -119 -8 -162q-9 -55 -46 -100q-76 -94 -204 -94h-247v318h-74v83h74v311h250q128 0 201 -95q38 -49 47 -104q7 -39 7 -157zM504 353q0 100 -5.5 136.5t-25.5 64.5q-45 62 -129 62h-129v-215h138v-83h-138v-222h129q90 0 133 63q18 27 22.5 60t4.5 134z" />
    <glyph glyph-name="eth" unicode="&#xf0;" horiz-adv-x="527" 
d="M471 249q0 -135 -58 -195t-150 -60q-91 0 -149 60t-58 195t59 196q39 40 104 51q41 7 76 -2l-45 81h-116v72h78l-39 70h108l39 -70h87v-72h-50l51 -94q38 -70 50.5 -116t12.5 -116zM369 249q0 101 -33 135q-28 29 -73 29q-44 0 -72 -29q-33 -34 -33 -135t33 -135
q28 -29 72 -29q45 0 73 29q33 34 33 135z" />
    <glyph glyph-name="Scaron" unicode="&#x160;" horiz-adv-x="580" 
d="M533 203q0 -97 -71 -153t-185 -56q-159 0 -252 94l72 71q68 -68 182 -68q70 0 108.5 28.5t38.5 80.5q0 48 -28 74q-24 22 -78 30l-84 12q-88 13 -135 57q-52 49 -52 136q0 94 64 151.5t174 57.5q134 0 221 -81l-69 -68q-58 55 -155 55q-61 0 -95.5 -31t-34.5 -80
q0 -42 27.5 -66.5t79.5 -32.5l81 -12q88 -13 133 -53q58 -51 58 -146zM459 942l-129 -161h-86l-129 161h85l87 -97l87 97h85z" />
    <glyph glyph-name="scaron" unicode="&#x161;" horiz-adv-x="489" 
d="M451 155q0 -77 -58.5 -119t-152.5 -42q-139 0 -213 73l67 67q52 -53 146 -53q111 0 111 70q0 54 -68 60l-81 7q-150 13 -150 140q0 72 56 115q53 40 135 40q123 0 188 -57l-64 -65q-44 37 -125 37q-92 0 -92 -65q0 -52 70 -58l80 -7q151 -13 151 -143zM415 760l-129 -161
h-86l-129 161h85l87 -97l87 97h85z" />
    <glyph glyph-name="Yacute" unicode="&#xdd;" horiz-adv-x="534" 
d="M534 712l-213 -419v-293h-108v293l-213 419h118l149 -313l149 313h118zM403 943l-111 -162h-77l75 162h113z" />
    <glyph glyph-name="yacute" unicode="&#xfd;" horiz-adv-x="458" 
d="M459 507l-224 -608q-15 -41 -37 -63q-37 -37 -104 -37h-41v92h26q32 0 47 11.5t26 42.5l28 79l-177 483h108l121 -357l118 357h109zM365 761l-111 -162h-77l75 162h113z" />
    <glyph glyph-name="Thorn" unicode="&#xde;" horiz-adv-x="627" 
d="M586 359q0 -94 -62.5 -154.5t-165.5 -60.5h-162v-144h-108v712h108v-137h162q103 0 165.5 -61t62.5 -155zM477 359q0 56 -34.5 87.5t-91.5 31.5h-155v-237h155q57 0 91.5 31.5t34.5 86.5z" />
    <glyph glyph-name="thorn" unicode="&#xfe;" horiz-adv-x="544" 
d="M491 254q0 -158 -57 -215q-45 -45 -123 -45q-84 0 -133 58v-257h-102v917h102v-256q48 57 133 57q78 0 123 -45q57 -57 57 -214zM389 254q0 80 -18 118q-24 50 -87 50t-87 -50q-19 -38 -19 -118t19 -118q24 -51 87 -51t87 51q18 38 18 118z" />
    <glyph glyph-name="Zcaron" unicode="&#x17d;" horiz-adv-x="542" 
d="M499 0h-456v93l329 522h-315v97h442v-88l-331 -527h331v-97zM448 942l-129 -161h-86l-129 161h85l87 -97l87 97h85z" />
    <glyph glyph-name="zcaron" unicode="&#x17e;" horiz-adv-x="459" 
d="M416 0h-378v81l252 335h-238v91h364v-81l-254 -335h254v-91zM406 760l-129 -161h-86l-129 161h85l87 -97l87 97h85z" />
    <glyph glyph-name="onehalf" unicode="&#xbd;" horiz-adv-x="817" 
d="M777 0h-259v69l160 186q22 26 22 52q0 55 -53 55t-53 -55h-76q0 57 36 90.5t93 33.5t93.5 -33.5t36.5 -90.5q0 -45 -46 -98l-121 -140h167v-69zM583 712l-335 -712h-81l335 712h81zM199 285h-77v341l-87 -76v87l87 75h77v-427z" />
    <glyph glyph-name="onequarter" unicode="&#xbc;" horiz-adv-x="798" 
d="M763 61h-40v-61h-74v61h-174v71l147 295h83l-147 -295h91v83h74v-83h40v-71zM591 712l-335 -712h-81l335 712h81zM199 285h-77v341l-87 -76v87l87 75h77v-427z" />
    <glyph glyph-name="onesuperior" unicode="&#xb9;" horiz-adv-x="267" 
d="M199 285h-77v341l-87 -76v87l87 75h77v-427z" />
    <glyph glyph-name="threequarters" unicode="&#xbe;" horiz-adv-x="834" 
d="M799 61h-40v-61h-73v61h-174v71l146 295h84l-147 -295h91v83h73v-83h40v-71zM633 712l-335 -712h-81l335 712h81zM312 408q0 -61 -38.5 -94.5t-96.5 -33.5q-57 0 -94 30q-42 33 -43 96h77q1 -57 60 -57q58 0 58 61q0 60 -61 60h-11v66h11q56 0 56 55q0 56 -54 56
q-51 0 -54 -52h-76q1 56 38 88.5t92 32.5q57 0 93.5 -34t36.5 -88q0 -63 -50 -89q56 -29 56 -97z" />
    <glyph glyph-name="threesuperior" unicode="&#xb3;" horiz-adv-x="352" 
d="M312 408q0 -61 -38.5 -94.5t-96.5 -33.5q-57 0 -94 30q-42 33 -43 96h77q1 -57 60 -57q58 0 58 61q0 60 -61 60h-11v66h11q56 0 56 55q0 56 -54 56q-51 0 -54 -52h-76q1 56 38 88.5t92 32.5q57 0 93.5 -34t36.5 -88q0 -63 -50 -89q56 -29 56 -97z" />
    <glyph glyph-name="twosuperior" unicode="&#xb2;" horiz-adv-x="340" 
d="M300 285h-260v69l161 186q22 25 22 52q0 55 -53 55t-53 -55h-77q0 57 36.5 90.5t93.5 33.5t93.5 -33.5t36.5 -90.5q0 -45 -46 -98l-121 -140h167v-69z" />
    <glyph glyph-name="brokenbar" unicode="&#xa6;" horiz-adv-x="334" 
d="M215 436h-102v350h102v-350zM215 -74h-102v350h102v-350z" />
    <glyph glyph-name="minus" unicode="&#xad;" horiz-adv-x="523" 
d="M477 230h-431v95h431v-95z" />
    <glyph glyph-name="minus" unicode="&#x2212;" horiz-adv-x="523" 
d="M477 230h-431v95h431v-95z" />
    <glyph glyph-name="multiply" unicode="&#xd7;" horiz-adv-x="523" 
d="M471 132l-64 -63l-146 145l-145 -145l-64 63l146 146l-146 146l64 64l145 -146l146 146l64 -64l-146 -146z" />
    <glyph glyph-name="Adieresis" unicode="&#xc4;" horiz-adv-x="615" 
d="M612 0h-115l-49 143h-281l-49 -143h-115l261 712h87zM418 235l-108 316l-111 -316h219zM459 786h-92v108h92v-108zM243 786h-92v108h92v-108z" />
    <glyph glyph-name="Aring" unicode="&#xc5;" horiz-adv-x="615" 
d="M612 0h-115l-49 143h-281l-49 -143h-115l261 712h87zM418 235l-108 316l-111 -316h219zM430 875q0 -52 -36.5 -88.5t-88.5 -36.5t-88.5 36.5t-36.5 88.5t36.5 88.5t88.5 36.5t88.5 -36.5t36.5 -88.5zM369 875q0 26 -19 44.5t-45 18.5t-45 -18.5t-19 -44.5t19 -44.5
t45 -18.5t45 18.5t19 44.5z" />
    <glyph glyph-name="Ccedilla" unicode="&#xc7;" horiz-adv-x="618" 
d="M572 213q-18 -104 -86.5 -161.5t-167.5 -57.5q-111 0 -187 76q-48 48 -61 118q-8 44 -8 168t8 168q13 70 61 118q76 76 187 76q100 0 168 -57t86 -162h-110q-29 122 -144 122q-65 0 -105 -43q-32 -35 -40 -106q-3 -25 -3 -116t3 -116q8 -71 40 -106q40 -43 105 -43
q116 0 145 122h109zM369 -64l-51 -147h-101l70 147h82z" />
    <glyph glyph-name="Eacute" unicode="&#xc9;" horiz-adv-x="593" 
d="M543 0h-455v712h455v-97h-347v-208h296v-96h-296v-214h347v-97zM442 943l-111 -162h-77l75 162h113z" />
    <glyph glyph-name="Ntilde" unicode="&#xd1;" horiz-adv-x="711" 
d="M624 0h-99l-329 501v-501h-108v712h99l329 -500v500h108v-712zM525 849q-55 -55 -104 -55q-35 0 -75 23q-33 19 -56 19q-28 0 -58 -30l-48 47q55 55 104 55q35 0 75 -24q32 -19 55 -19q28 0 59 31z" />
    <glyph glyph-name="Odieresis" unicode="&#xd6;" horiz-adv-x="637" 
d="M574 356q0 -125 -8 -168q-12 -70 -60 -118q-76 -76 -188 -76q-111 0 -187 76q-48 48 -61 118q-8 44 -8 168t8 168q13 70 61 118q76 76 187 76q112 0 188 -76q48 -48 60 -118q8 -43 8 -168zM466 356q0 91 -3 116q-7 71 -39 105q-41 44 -106 44t-106 -44q-32 -34 -39 -105
q-3 -25 -3 -116t3 -116q7 -71 39 -105q41 -44 106 -44t106 44q32 34 39 105q3 25 3 116zM472 786h-92v108h92v-108zM256 786h-92v108h92v-108z" />
    <glyph glyph-name="Udieresis" unicode="&#xdc;" horiz-adv-x="665" 
d="M588 240q0 -109 -73 -177.5t-183 -68.5t-182.5 68.5t-72.5 177.5v472h108v-467q0 -71 40 -112.5t107 -41.5t107.5 41.5t40.5 112.5v467h108v-472zM487 786h-92v108h92v-108zM271 786h-92v108h92v-108z" />
    <glyph glyph-name="aacute" unicode="&#xe1;" horiz-adv-x="520" 
d="M449 0h-100v46q-52 -52 -135 -52q-91 0 -136 46q-40 41 -40 109q0 66 45 106t130 40h134v36q0 95 -111 95q-73 0 -111 -49l-67 63q35 41 78 58q39 15 104 15q209 0 209 -174v-339zM347 183v41h-119q-91 0 -91 -73q0 -72 93 -72q65 0 95 29q22 21 22 75zM388 761
l-111 -162h-77l75 162h113z" />
    <glyph glyph-name="agrave" unicode="&#xe0;" horiz-adv-x="520" 
d="M449 0h-100v46q-52 -52 -135 -52q-91 0 -136 46q-40 41 -40 109q0 66 45 106t130 40h134v36q0 95 -111 95q-73 0 -111 -49l-67 63q35 41 78 58q39 15 104 15q209 0 209 -174v-339zM347 183v41h-119q-91 0 -91 -73q0 -72 93 -72q65 0 95 29q22 21 22 75zM304 599h-77
l-111 162h113z" />
    <glyph glyph-name="acircumflex" unicode="&#xe2;" horiz-adv-x="520" 
d="M449 0h-100v46q-52 -52 -135 -52q-91 0 -136 46q-40 41 -40 109q0 66 45 106t130 40h134v36q0 95 -111 95q-73 0 -111 -49l-67 63q35 41 78 58q39 15 104 15q209 0 209 -174v-339zM347 183v41h-119q-91 0 -91 -73q0 -72 93 -72q65 0 95 29q22 21 22 75zM424 599h-85
l-87 97l-87 -97h-85l129 161h86z" />
    <glyph glyph-name="adieresis" unicode="&#xe4;" horiz-adv-x="520" 
d="M449 0h-100v46q-52 -52 -135 -52q-91 0 -136 46q-40 41 -40 109q0 66 45 106t130 40h134v36q0 95 -111 95q-73 0 -111 -49l-67 63q35 41 78 58q39 15 104 15q209 0 209 -174v-339zM347 183v41h-119q-91 0 -91 -73q0 -72 93 -72q65 0 95 29q22 21 22 75zM406 604h-92v108
h92v-108zM190 604h-92v108h92v-108z" />
    <glyph glyph-name="atilde" unicode="&#xe3;" horiz-adv-x="520" 
d="M449 0h-100v46q-52 -52 -135 -52q-91 0 -136 46q-40 41 -40 109q0 66 45 106t130 40h134v36q0 95 -111 95q-73 0 -111 -49l-67 63q35 41 78 58q39 15 104 15q209 0 209 -174v-339zM347 183v41h-119q-91 0 -91 -73q0 -72 93 -72q65 0 95 29q22 21 22 75zM421 667
q-55 -55 -104 -55q-35 0 -75 23q-33 19 -56 19q-28 0 -58 -30l-48 47q55 55 104 55q35 0 75 -24q32 -19 55 -19q28 0 59 31z" />
    <glyph glyph-name="aring" unicode="&#xe5;" horiz-adv-x="520" 
d="M449 0h-100v46q-52 -52 -135 -52q-91 0 -136 46q-40 41 -40 109q0 66 45 106t130 40h134v36q0 95 -111 95q-73 0 -111 -49l-67 63q35 41 78 58q39 15 104 15q209 0 209 -174v-339zM347 183v41h-119q-91 0 -91 -73q0 -72 93 -72q65 0 95 29q22 21 22 75zM377 701
q0 -52 -36.5 -88.5t-88.5 -36.5t-88.5 36.5t-36.5 88.5t36.5 88.5t88.5 36.5t88.5 -36.5t36.5 -88.5zM316 701q0 26 -19 44.5t-45 18.5t-45 -18.5t-19 -44.5t19 -44.5t45 -18.5t45 18.5t19 44.5z" />
    <glyph glyph-name="ccedilla" unicode="&#xe7;" horiz-adv-x="478" 
d="M443 66q-68 -72 -167 -72q-96 0 -156 59q-70 68 -70 201t70 201q60 58 156 58q100 0 167 -71l-70 -68q-44 48 -97 48q-59 0 -94 -45q-30 -39 -30 -123q0 -85 30 -124q35 -45 94 -45q53 0 97 48zM314 -64l-51 -147h-101l70 147h82z" />
    <glyph glyph-name="eacute" unicode="&#xe9;" horiz-adv-x="529" 
d="M480 224h-329q0 -66 33.5 -104t95.5 -38q71 0 123 52l65 -61q-41 -41 -81 -59q-45 -20 -109 -20q-228 0 -228 260q0 122 58 190.5t157 68.5q100 0 159 -68q56 -66 56 -176v-45zM379 295q-1 39 -14 69q-27 64 -100 64q-74 0 -101 -64q-12 -27 -13 -69h228zM404 761
l-111 -162h-77l75 162h113z" />
    <glyph glyph-name="egrave" unicode="&#xe8;" horiz-adv-x="529" 
d="M480 224h-329q0 -66 33.5 -104t95.5 -38q71 0 123 52l65 -61q-41 -41 -81 -59q-45 -20 -109 -20q-228 0 -228 260q0 122 58 190.5t157 68.5q100 0 159 -68q56 -66 56 -176v-45zM379 295q-1 39 -14 69q-27 64 -100 64q-74 0 -101 -64q-12 -27 -13 -69h228zM320 599h-77
l-111 162h113z" />
    <glyph glyph-name="ecircumflex" unicode="&#xea;" horiz-adv-x="529" 
d="M480 224h-329q0 -66 33.5 -104t95.5 -38q71 0 123 52l65 -61q-41 -41 -81 -59q-45 -20 -109 -20q-228 0 -228 260q0 122 58 190.5t157 68.5q100 0 159 -68q56 -66 56 -176v-45zM379 295q-1 39 -14 69q-27 64 -100 64q-74 0 -101 -64q-12 -27 -13 -69h228zM440 599h-85
l-87 97l-87 -97h-85l129 161h86z" />
    <glyph glyph-name="edieresis" unicode="&#xeb;" horiz-adv-x="529" 
d="M480 224h-329q0 -66 33.5 -104t95.5 -38q71 0 123 52l65 -61q-41 -41 -81 -59q-45 -20 -109 -20q-228 0 -228 260q0 122 58 190.5t157 68.5q100 0 159 -68q56 -66 56 -176v-45zM379 295q-1 39 -14 69q-27 64 -100 64q-74 0 -101 -64q-12 -27 -13 -69h228zM422 604h-92
v108h92v-108zM206 604h-92v108h92v-108z" />
    <glyph glyph-name="iacute" unicode="&#xed;" horiz-adv-x="254" 
d="M178 0h-102v507h102v-507zM249 761l-111 -162h-77l75 162h113z" />
    <glyph glyph-name="igrave" unicode="&#xec;" horiz-adv-x="254" 
d="M178 0h-102v507h102v-507zM198 599h-77l-111 162h113z" />
    <glyph glyph-name="icircumflex" unicode="&#xee;" horiz-adv-x="254" 
d="M178 0h-102v507h102v-507zM297 599h-85l-87 97l-87 -97h-85l129 161h86z" />
    <glyph glyph-name="idieresis" unicode="&#xef;" horiz-adv-x="254" 
d="M178 0h-102v507h102v-507zM279 604h-92v108h92v-108zM63 604h-92v108h92v-108z" />
    <glyph glyph-name="ntilde" unicode="&#xf1;" horiz-adv-x="558" 
d="M487 0h-102v309q0 57 -30 86q-26 27 -72 27t-74 -27q-31 -30 -31 -86v-309h-102v507h100v-51q53 57 135 57q78 0 125 -46q51 -50 51 -143v-324zM451 667q-55 -55 -104 -55q-35 0 -75 23q-33 19 -56 19q-28 0 -58 -30l-48 47q55 55 104 55q35 0 75 -24q32 -19 55 -19
q28 0 59 31z" />
    <glyph glyph-name="oacute" unicode="&#xf3;" horiz-adv-x="527" 
d="M475 254q0 -138 -59 -199t-153 -61q-93 0 -152 61t-59 199q0 137 59 198t152 61q94 0 153 -61t59 -198zM373 254q0 104 -35 139q-29 29 -75 29q-45 0 -74 -29q-35 -35 -35 -139t35 -139q30 -30 74 -30q45 0 75 30q35 35 35 139zM399 761l-111 -162h-77l75 162h113z" />
    <glyph glyph-name="ograve" unicode="&#xf2;" horiz-adv-x="527" 
d="M475 254q0 -138 -59 -199t-153 -61q-93 0 -152 61t-59 199q0 137 59 198t152 61q94 0 153 -61t59 -198zM373 254q0 104 -35 139q-29 29 -75 29q-45 0 -74 -29q-35 -35 -35 -139t35 -139q30 -30 74 -30q45 0 75 30q35 35 35 139zM308 599h-77l-111 162h113z" />
    <glyph glyph-name="ocircumflex" unicode="&#xf4;" horiz-adv-x="527" 
d="M475 254q0 -138 -59 -199t-153 -61q-93 0 -152 61t-59 199q0 137 59 198t152 61q94 0 153 -61t59 -198zM373 254q0 104 -35 139q-29 29 -75 29q-45 0 -74 -29q-35 -35 -35 -139t35 -139q30 -30 74 -30q45 0 75 30q35 35 35 139zM435 599h-85l-87 97l-87 -97h-85l129 161
h86z" />
    <glyph glyph-name="odieresis" unicode="&#xf6;" horiz-adv-x="527" 
d="M475 254q0 -138 -59 -199t-153 -61q-93 0 -152 61t-59 199q0 137 59 198t152 61q94 0 153 -61t59 -198zM373 254q0 104 -35 139q-29 29 -75 29q-45 0 -74 -29q-35 -35 -35 -139t35 -139q30 -30 74 -30q45 0 75 30q35 35 35 139zM417 604h-92v108h92v-108zM201 604h-92
v108h92v-108z" />
    <glyph glyph-name="otilde" unicode="&#xf5;" horiz-adv-x="527" 
d="M475 254q0 -138 -59 -199t-153 -61q-93 0 -152 61t-59 199q0 137 59 198t152 61q94 0 153 -61t59 -198zM373 254q0 104 -35 139q-29 29 -75 29q-45 0 -74 -29q-35 -35 -35 -139t35 -139q30 -30 74 -30q45 0 75 30q35 35 35 139zM432 667q-55 -55 -104 -55q-35 0 -75 23
q-33 19 -56 19q-28 0 -58 -30l-48 47q55 55 104 55q35 0 75 -24q32 -19 55 -19q28 0 59 31z" />
    <glyph glyph-name="uacute" unicode="&#xfa;" horiz-adv-x="558" 
d="M482 0h-100v51q-52 -57 -135 -57q-78 0 -125 46q-51 50 -51 143v324h102v-309q0 -56 30 -86q27 -27 72 -27q46 0 75.5 28.5t29.5 84.5v309h102v-507zM412 761l-111 -162h-77l75 162h113z" />
    <glyph glyph-name="ugrave" unicode="&#xf9;" horiz-adv-x="558" 
d="M482 0h-100v51q-52 -57 -135 -57q-78 0 -125 46q-51 50 -51 143v324h102v-309q0 -56 30 -86q27 -27 72 -27q46 0 75.5 28.5t29.5 84.5v309h102v-507zM328 599h-77l-111 162h113z" />
    <glyph glyph-name="ucircumflex" unicode="&#xfb;" horiz-adv-x="558" 
d="M482 0h-100v51q-52 -57 -135 -57q-78 0 -125 46q-51 50 -51 143v324h102v-309q0 -56 30 -86q27 -27 72 -27q46 0 75.5 28.5t29.5 84.5v309h102v-507zM448 599h-85l-87 97l-87 -97h-85l129 161h86z" />
    <glyph glyph-name="udieresis" unicode="&#xfc;" horiz-adv-x="558" 
d="M482 0h-100v51q-52 -57 -135 -57q-78 0 -125 46q-51 50 -51 143v324h102v-309q0 -56 30 -86q27 -27 72 -27q46 0 75.5 28.5t29.5 84.5v309h102v-507zM430 604h-92v108h92v-108zM214 604h-92v108h92v-108z" />
    <glyph glyph-name="degree" unicode="&#xb0;" horiz-adv-x="461" 
d="M405 549q0 -72 -51.5 -123t-123.5 -51t-123 51t-51 123t51 123.5t123 51.5t123.5 -51.5t51.5 -123.5zM321 549q0 39 -26.5 66t-64.5 27t-64 -27t-26 -66t26 -65.5t64 -26.5t64.5 26.5t26.5 65.5z" />
    <glyph glyph-name="registered" unicode="&#xae;" horiz-adv-x="852" 
d="M788 356q0 -150 -106 -256t-256 -106t-256 106t-106 256t106 256t256 106t256 -106t106 -256zM715 356q0 124 -84 209.5t-205 85.5q-122 0 -206 -85.5t-84 -209.5t84 -209.5t206 -85.5q121 0 205 85.5t84 209.5zM583 161h-81l-80 155h-50v-155h-72v391h147q55 0 90.5 -35
t35.5 -85q0 -79 -77 -106zM502 432q0 25 -18 42t-46 17h-66v-118h66q28 0 46 17t18 42z" />
    <glyph glyph-name="copyright" unicode="&#xa9;" horiz-adv-x="852" 
d="M788 356q0 -150 -106 -256t-256 -106t-256 106t-106 256t106 256t256 106t256 -106t106 -256zM715 356q0 124 -84 209t-205 85t-205 -85t-84 -209t84 -209t205 -85t205 85t84 209zM563 208q-58 -52 -131 -52q-81 0 -130 54.5t-49 145.5t49 145.5t130 54.5q71 0 131 -52
l-46 -47q-40 35 -85 35q-108 0 -108 -136t108 -136q45 0 85 35z" />
    <glyph glyph-name="trademark" unicode="&#x2122;" horiz-adv-x="873" 
d="M817 285h-77v279l-90 -179h-71l-90 179v-279h-77v427h77l125 -243l126 243h77v-427zM341 643h-115v-358h-76v358h-114v69h305v-69z" />
    <glyph glyph-name="notequal" unicode="&#x2260;" horiz-adv-x="561" 
d="M515 133h-303l-103 -120l-63 51l61 69h-61v95h138l88 99h-226v95h302l104 120l63 -51l-61 -69h61v-95h-138l-88 -99h226v-95z" />
    <glyph glyph-name="infinity" unicode="&#x221e;" horiz-adv-x="820" 
d="M764 276q0 -76 -47 -125t-128 -49q-95 0 -179 99q-85 -100 -179 -100q-81 0 -129 51q-46 48 -46 124t47 125.5t128 49.5q94 0 179 -100q85 100 179 100q81 0 128 -49.5t47 -125.5zM666 274q0 35 -22.5 56.5t-56.5 21.5q-28 0 -56 -22q-18 -15 -53 -56q36 -42 53 -56
q28 -23 56 -23q34 0 56.5 22t22.5 57zM342 274q-35 41 -53 56q-29 23 -57 23q-34 0 -56 -22t-22 -57t22 -57t56 -22q28 0 57 23q18 15 53 56z" />
    <glyph glyph-name="plusminus" unicode="&#xb1;" horiz-adv-x="523" 
d="M477 316h-168v-169h-95v169h-168v95h168v168h95v-168h168v-95zM477 0h-431v95h431v-95z" />
    <glyph glyph-name="lessequal" unicode="&#x2264;" horiz-adv-x="1017" 
d="M868 -14l-68 -69l-526 527v-487l-92 92v554h555l92 -92l-487 1z" />
    <glyph glyph-name="greaterequal" unicode="&#x2265;" horiz-adv-x="1017" 
d="M834 49l-92 -92l1 487l-526 -527l-69 69l527 527l-487 -2l92 92h554v-554z" />
    <glyph glyph-name="mu" unicode="&#xb5;" horiz-adv-x="559" 
d="M482 0h-100v51q-52 -57 -134 -57q-45 0 -75 25v-224h-102v712h102v-309q0 -56 30 -86q27 -27 73 -27t73 27q31 30 31 86v309h102v-507z" />
    <glyph glyph-name="mu" unicode="&#x3bc;" horiz-adv-x="559" 
d="M482 0h-100v51q-52 -57 -134 -57q-45 0 -75 25v-224h-102v712h102v-309q0 -56 30 -86q27 -27 73 -27t73 27q31 30 31 86v309h102v-507z" />
    <glyph glyph-name="partialdiff" unicode="&#x2202;" horiz-adv-x="539" 
d="M463 249q0 -136 -56.5 -195.5t-146.5 -59.5q-91 0 -147.5 59.5t-56.5 195.5q0 139 56 197t142 58q70 0 107 -42v47q0 49 -26 82q-32 40 -93 40q-63 0 -110 -44l-64 64q72 67 178 67q105 0 163 -64q54 -60 54 -163v-242zM361 249q0 102 -32 135q-28 29 -69 29
q-42 0 -70 -29q-32 -33 -32 -135t32 -135q28 -29 70 -29q41 0 69 29q32 33 32 135z" />
    <glyph glyph-name="summation" unicode="&#x2211;" horiz-adv-x="542" 
d="M503 -205h-460v88l195 406l-193 383v88h455v-97h-329l161 -325v-100l-164 -346h335v-97z" />
    <glyph glyph-name="product" unicode="&#x220f;" horiz-adv-x="680" 
d="M593 -205h-109v869h-288v-869h-108v965h505v-965z" />
    <glyph glyph-name="pi" unicode="&#x3c0;" horiz-adv-x="581" 
d="M498 0h-100v412h-214v-412h-101v507h415v-507z" />
    <glyph glyph-name="integral" unicode="&#x222b;" horiz-adv-x="423" 
d="M380 633h-44q-72 0 -72 -74v-599q0 -75 -44.5 -118.5t-119.5 -43.5h-57v87h44q71 0 71 74v599q0 75 44.5 118.5t120.5 43.5h57v-87z" />
    <glyph glyph-name="Omega" unicode="&#x3a9;" horiz-adv-x="637" 
d="M574 0h-207v87q64 31 83 82q16 45 16 182q0 92 -3 118q-8 74 -39 107q-42 45 -106 45q-63 0 -105 -45q-31 -33 -39 -107q-3 -26 -3 -118q0 -164 25 -202.5t73 -61.5v-87h-207v96h70q-29 26 -45 61q-25 54 -25 199q0 124 8 168q13 70 61 118q76 76 187 76q112 0 188 -76
q48 -48 60 -118q8 -43 8 -168q0 -147 -24 -199q-15 -33 -46 -61h70v-96z" />
    <glyph glyph-name="Omega" unicode="&#x2126;" horiz-adv-x="637" 
d="M574 0h-207v87q64 31 83 82q16 45 16 182q0 92 -3 118q-8 74 -39 107q-42 45 -106 45q-63 0 -105 -45q-31 -33 -39 -107q-3 -26 -3 -118q0 -164 25 -202.5t73 -61.5v-87h-207v96h70q-29 26 -45 61q-25 54 -25 199q0 124 8 168q13 70 61 118q76 76 187 76q112 0 188 -76
q48 -48 60 -118q8 -43 8 -168q0 -147 -24 -199q-15 -33 -46 -61h70v-96z" />
    <glyph glyph-name="logicalnot" unicode="&#xac;" horiz-adv-x="508" 
d="M199 0h-71q-20 0 -34 14.5t-14 34.5v68q0 20 14 34.5t34 14.5h71q25 0 44 20.5t19 45.5v68q0 25 -19 45t-44 20h-71q-20 0 -34 14.5t-14 34.5v68q0 20 14 34.5t34 14.5h71q25 0 44 19.5t19 44.5v68q0 20 14 34.5t34 14.5h70q20 0 34 -14.5t14 -34.5v-68q0 -20 -14 -34.5
t-34 -14.5h-70q-25 0 -44.5 -19.5t-19.5 -44.5v-68q0 -25 19.5 -45t44.5 -20h70q20 0 34 -14.5t14 -34.5v-68q0 -20 -14 -34.5t-34 -14.5h-70q-25 0 -44.5 -20.5t-19.5 -45.5v-68q0 -20 -13.5 -34.5t-33.5 -14.5z" />
    <glyph glyph-name="radical" unicode="&#x221a;" horiz-adv-x="570" 
d="M545 615h-91l-202 -615h-84l-168 507h111l99 -313l163 518h172v-97z" />
    <glyph glyph-name="approxequal" unicode="&#x2248;" horiz-adv-x="564" 
d="M526 380q-44 -44 -76 -60.5t-72 -16.5q-47 0 -112 32q-49 24 -79 24q-42 0 -85 -43l-64 64q44 44 75.5 60.5t71.5 16.5q46 0 111 -32q49 -24 80 -24q42 0 85 43zM526 178q-44 -44 -75.5 -61t-71.5 -17q-45 0 -112 33q-49 24 -79 24q-42 0 -86 -44l-64 64q44 44 76 61
t72 17q44 0 111 -33q49 -24 80 -24q41 0 85 44z" />
    <glyph glyph-name="approxequal" unicode="&#x22f2;" horiz-adv-x="564" 
d="M526 380q-44 -44 -76 -60.5t-72 -16.5q-47 0 -112 32q-49 24 -79 24q-42 0 -85 -43l-64 64q44 44 75.5 60.5t71.5 16.5q46 0 111 -32q49 -24 80 -24q42 0 85 43zM526 178q-44 -44 -75.5 -61t-71.5 -17q-45 0 -112 33q-49 24 -79 24q-42 0 -86 -44l-64 64q44 44 76 61
t72 17q44 0 111 -33q49 -24 80 -24q41 0 85 44z" />
    <glyph glyph-name="Delta" unicode="&#x394;" horiz-adv-x="609" 
d="M608 0h-608l261 712h87zM467 92l-161 459l-162 -459h323z" />
    <glyph glyph-name="Delta" unicode="&#x2206;" horiz-adv-x="609" 
d="M608 0h-608l261 712h87zM467 92l-161 459l-162 -459h323z" />
    <glyph glyph-name="nonbreakingspace" unicode="&#xa0;" horiz-adv-x="230" 
 />
    <glyph glyph-name="Agrave" unicode="&#xc0;" horiz-adv-x="615" 
d="M612 0h-115l-49 143h-281l-49 -143h-115l261 712h87zM418 235l-108 316l-111 -316h219zM356 781h-77l-111 162h113z" />
    <glyph glyph-name="Atilde" unicode="&#xc3;" horiz-adv-x="615" 
d="M612 0h-115l-49 143h-281l-49 -143h-115l261 712h87zM418 235l-108 316l-111 -316h219zM473 849q-55 -55 -104 -55q-35 0 -75 23q-33 19 -56 19q-28 0 -58 -30l-48 47q55 55 104 55q35 0 75 -24q32 -19 55 -19q28 0 59 31z" />
    <glyph glyph-name="Otilde" unicode="&#xd5;" horiz-adv-x="637" 
d="M574 356q0 -125 -8 -168q-12 -70 -60 -118q-76 -76 -188 -76q-111 0 -187 76q-48 48 -61 118q-8 44 -8 168t8 168q13 70 61 118q76 76 187 76q112 0 188 -76q48 -48 60 -118q8 -43 8 -168zM466 356q0 91 -3 116q-7 71 -39 105q-41 44 -106 44t-106 -44q-32 -34 -39 -105
q-3 -25 -3 -116t3 -116q7 -71 39 -105q41 -44 106 -44t106 44q32 34 39 105q3 25 3 116zM487 849q-55 -55 -104 -55q-35 0 -75 23q-33 19 -56 19q-28 0 -58 -30l-48 47q55 55 104 55q35 0 75 -24q32 -19 55 -19q28 0 59 31z" />
    <glyph glyph-name="divide" unicode="&#xf7;" horiz-adv-x="523" 
d="M316 414h-109v109h109v-109zM479 230h-436v95h436v-95zM316 33h-109v109h109v-109z" />
    <glyph glyph-name="lozenge" unicode="&#x25ca;" horiz-adv-x="632" 
d="M577 346l-261 -365l-260 365l260 365zM462 346l-146 207l-146 -207l146 -208z" />
    <glyph glyph-name="ydieresis" unicode="&#xff;" horiz-adv-x="458" 
d="M459 507l-224 -608q-15 -41 -37 -63q-37 -37 -104 -37h-41v92h26q32 0 47 11.5t26 42.5l28 79l-177 483h108l121 -357l118 357h109zM383 604h-92v108h92v-108zM167 604h-92v108h92v-108z" />
    <glyph glyph-name="Ydieresis" unicode="&#x178;" horiz-adv-x="534" 
d="M534 712l-213 -419v-293h-108v293l-213 419h118l149 -313l149 313h118zM421 786h-92v108h92v-108zM205 786h-92v108h92v-108z" />
    <glyph glyph-name="Acircumflex" unicode="&#xc2;" horiz-adv-x="615" 
d="M612 0h-115l-49 143h-281l-49 -143h-115l261 712h87zM418 235l-108 316l-111 -316h219zM477 781h-85l-87 97l-87 -97h-85l129 161h86z" />
    <glyph glyph-name="Ecircumflex" unicode="&#xca;" horiz-adv-x="593" 
d="M543 0h-455v712h455v-97h-347v-208h296v-96h-296v-214h347v-97zM478 781h-85l-87 97l-87 -97h-85l129 161h86z" />
    <glyph glyph-name="Aacute" unicode="&#xc1;" horiz-adv-x="615" 
d="M612 0h-115l-49 143h-281l-49 -143h-115l261 712h87zM418 235l-108 316l-111 -316h219zM441 943l-111 -162h-77l75 162h113z" />
    <glyph glyph-name="Edieresis" unicode="&#xcb;" horiz-adv-x="593" 
d="M543 0h-455v712h455v-97h-347v-208h296v-96h-296v-214h347v-97zM460 786h-92v108h92v-108zM244 786h-92v108h92v-108z" />
    <glyph glyph-name="Egrave" unicode="&#xc8;" horiz-adv-x="593" 
d="M543 0h-455v712h455v-97h-347v-208h296v-96h-296v-214h347v-97zM358 781h-77l-111 162h113z" />
    <glyph glyph-name="Iacute" unicode="&#xcd;" horiz-adv-x="284" 
d="M196 0h-108v712h108v-712zM263 943l-111 -162h-77l75 162h113z" />
    <glyph glyph-name="Icircumflex" unicode="&#xce;" horiz-adv-x="284" 
d="M196 0h-108v712h108v-712zM309 781h-85l-87 97l-87 -97h-85l129 161h86z" />
    <glyph glyph-name="Idieresis" unicode="&#xcf;" horiz-adv-x="284" 
d="M196 0h-108v712h108v-712zM294 786h-92v108h92v-108zM78 786h-92v108h92v-108z" />
    <glyph glyph-name="Igrave" unicode="&#xcc;" horiz-adv-x="284" 
d="M196 0h-108v712h108v-712zM210 781h-77l-111 162h113z" />
    <glyph glyph-name="Oacute" unicode="&#xd3;" horiz-adv-x="637" 
d="M574 356q0 -125 -8 -168q-12 -70 -60 -118q-76 -76 -188 -76q-111 0 -187 76q-48 48 -61 118q-8 44 -8 168t8 168q13 70 61 118q76 76 187 76q112 0 188 -76q48 -48 60 -118q8 -43 8 -168zM466 356q0 91 -3 116q-7 71 -39 105q-41 44 -106 44t-106 -44q-32 -34 -39 -105
q-3 -25 -3 -116t3 -116q7 -71 39 -105q41 -44 106 -44t106 44q32 34 39 105q3 25 3 116zM454 943l-111 -162h-77l75 162h113z" />
    <glyph glyph-name="Ocircumflex" unicode="&#xd4;" horiz-adv-x="637" 
d="M574 356q0 -125 -8 -168q-12 -70 -60 -118q-76 -76 -188 -76q-111 0 -187 76q-48 48 -61 118q-8 44 -8 168t8 168q13 70 61 118q76 76 187 76q112 0 188 -76q48 -48 60 -118q8 -43 8 -168zM466 356q0 91 -3 116q-7 71 -39 105q-41 44 -106 44t-106 -44q-32 -34 -39 -105
q-3 -25 -3 -116t3 -116q7 -71 39 -105q41 -44 106 -44t106 44q32 34 39 105q3 25 3 116zM490 781h-85l-87 97l-87 -97h-85l129 161h86z" />
    <glyph glyph-name="Ograve" unicode="&#xd2;" horiz-adv-x="637" 
d="M574 356q0 -125 -8 -168q-12 -70 -60 -118q-76 -76 -188 -76q-111 0 -187 76q-48 48 -61 118q-8 44 -8 168t8 168q13 70 61 118q76 76 187 76q112 0 188 -76q48 -48 60 -118q8 -43 8 -168zM466 356q0 91 -3 116q-7 71 -39 105q-41 44 -106 44t-106 -44q-32 -34 -39 -105
q-3 -25 -3 -116t3 -116q7 -71 39 -105q41 -44 106 -44t106 44q32 34 39 105q3 25 3 116zM370 781h-77l-111 162h113z" />
    <glyph glyph-name="Uacute" unicode="&#xda;" horiz-adv-x="665" 
d="M588 240q0 -109 -73 -177.5t-183 -68.5t-182.5 68.5t-72.5 177.5v472h108v-467q0 -71 40 -112.5t107 -41.5t107.5 41.5t40.5 112.5v467h108v-472zM469 943l-111 -162h-77l75 162h113z" />
    <glyph glyph-name="Ucircumflex" unicode="&#xdb;" horiz-adv-x="665" 
d="M588 240q0 -109 -73 -177.5t-183 -68.5t-182.5 68.5t-72.5 177.5v472h108v-467q0 -71 40 -112.5t107 -41.5t107.5 41.5t40.5 112.5v467h108v-472zM505 781h-85l-87 97l-87 -97h-85l129 161h86z" />
    <glyph glyph-name="Ugrave" unicode="&#xd9;" horiz-adv-x="665" 
d="M588 240q0 -109 -73 -177.5t-183 -68.5t-182.5 68.5t-72.5 177.5v472h108v-467q0 -71 40 -112.5t107 -41.5t107.5 41.5t40.5 112.5v467h108v-472zM385 781h-77l-111 162h113z" />
    <glyph glyph-name="glyph246" horiz-adv-x="1000" 
 />
  </font>
</defs>
</svg>
